<?xml version="1.0" encoding="utf-8"?>
<svg viewBox="104.625 120.232 252.73 33.15" width="252.73" height="33.15" xmlns="http://www.w3.org/2000/svg">
  <path class="cls-1" d="M 126.485 131.063 C 125.572 130.513 124.623 130.025 123.645 129.603 C 122.742 129.215 121.817 128.881 120.875 128.603 C 119.905 128.291 118.893 128.129 117.875 128.123 C 117.222 128.095 116.572 128.219 115.975 128.483 C 115.512 128.717 115.233 129.205 115.265 129.723 C 115.252 130.116 115.404 130.497 115.685 130.773 C 116.03 131.096 116.434 131.35 116.875 131.523 C 117.491 131.793 118.126 132.017 118.775 132.193 C 119.515 132.403 120.365 132.663 121.315 132.973 C 122.697 133.386 124.05 133.89 125.365 134.483 C 126.481 134.975 127.518 135.629 128.445 136.423 C 129.312 137.163 129.996 138.094 130.445 139.143 C 130.935 140.379 131.17 141.703 131.135 143.033 C 131.193 144.737 130.822 146.429 130.055 147.953 C 129.388 149.23 128.416 150.322 127.225 151.133 C 126.008 151.947 124.652 152.53 123.225 152.853 C 121.764 153.203 120.267 153.38 118.765 153.383 C 117.539 153.382 116.316 153.288 115.105 153.103 C 113.846 152.921 112.601 152.66 111.375 152.323 C 110.162 151.997 108.97 151.6 107.805 151.133 C 106.705 150.701 105.642 150.183 104.625 149.583 L 108.475 141.753 C 109.544 142.428 110.66 143.026 111.815 143.543 C 112.884 144.039 113.991 144.45 115.125 144.773 C 116.351 145.139 117.625 145.324 118.905 145.323 C 119.594 145.374 120.285 145.24 120.905 144.933 C 121.254 144.72 121.469 144.342 121.475 143.933 C 121.474 143.479 121.264 143.051 120.905 142.773 C 120.43 142.401 119.896 142.114 119.325 141.923 C 118.655 141.683 117.885 141.433 117.015 141.193 C 116.145 140.953 115.215 140.653 114.245 140.323 C 112.967 139.899 111.726 139.371 110.535 138.743 C 109.584 138.244 108.719 137.596 107.975 136.823 C 107.314 136.118 106.807 135.283 106.485 134.373 C 106.149 133.354 105.987 132.285 106.005 131.213 C 105.979 129.571 106.32 127.945 107.005 126.453 C 107.632 125.124 108.547 123.953 109.685 123.023 C 110.834 122.094 112.146 121.389 113.555 120.943 C 115.04 120.46 116.593 120.22 118.155 120.233 C 119.323 120.229 120.489 120.343 121.635 120.573 C 122.741 120.798 123.833 121.088 124.905 121.443 C 125.955 121.793 126.905 122.173 127.905 122.583 C 128.905 122.993 129.645 123.393 130.375 123.753 Z" style="fill: rgb(15, 30, 66);"/>
  <path class="cls-1" d="M 163.775 120.443 L 163.775 152.893 L 154.855 152.893 L 154.855 140.213 L 143.965 140.213 L 143.965 152.893 L 135.035 152.893 L 135.035 120.443 L 143.965 120.443 L 143.965 132.443 L 154.855 132.443 L 154.855 120.443 Z" style="fill: rgb(15, 30, 66);"/>
  <path class="cls-1" d="M 184.005 153.213 C 181.684 153.246 179.384 152.761 177.275 151.793 C 175.327 150.894 173.572 149.627 172.105 148.063 C 170.673 146.525 169.54 144.735 168.765 142.783 C 167.98 140.831 167.576 138.747 167.575 136.643 C 167.57 134.524 167.992 132.425 168.815 130.473 C 169.613 128.515 170.785 126.732 172.265 125.223 C 173.776 123.7 175.56 122.475 177.525 121.613 C 179.625 120.698 181.894 120.238 184.185 120.263 C 186.506 120.228 188.805 120.714 190.915 121.683 C 192.866 122.583 194.623 123.857 196.085 125.433 C 197.513 126.98 198.639 128.781 199.405 130.743 C 200.177 132.68 200.574 134.747 200.575 136.833 C 200.575 138.945 200.153 141.036 199.335 142.983 C 198.531 144.923 197.367 146.695 195.905 148.203 C 194.403 149.736 192.625 150.971 190.665 151.843 C 188.568 152.768 186.297 153.235 184.005 153.213 Z M 176.635 136.733 C 176.635 137.813 176.79 138.887 177.095 139.923 C 177.377 140.907 177.842 141.83 178.465 142.643 C 180.673 145.267 184.384 146.051 187.465 144.543 C 188.378 144.062 189.168 143.377 189.775 142.543 C 190.385 141.709 190.836 140.77 191.105 139.773 C 191.395 138.744 191.543 137.681 191.545 136.613 C 191.544 135.536 191.389 134.465 191.085 133.433 C 190.798 132.45 190.322 131.533 189.685 130.733 C 189.054 129.947 188.258 129.309 187.355 128.863 C 185.263 127.903 182.856 127.903 180.765 128.863 C 179.862 129.332 179.073 129.994 178.455 130.803 C 177.838 131.628 177.38 132.56 177.105 133.553 C 176.799 134.585 176.641 135.656 176.635 136.733 Z" style="fill: rgb(15, 30, 66);"/>
  <path class="cls-1" d="M 204.375 152.893 L 204.375 120.443 L 213.295 120.443 L 213.295 132.803 L 223.175 120.443 L 233.245 120.443 L 221.435 135.003 L 234.075 152.893 L 223.775 152.893 L 215.775 140.953 L 213.305 143.513 L 213.305 152.893 Z" style="fill: rgb(15, 30, 66);"/>
  <path class="cls-1" d="M 248.625 153.213 C 246.304 153.247 244.004 152.762 241.895 151.793 C 239.946 150.896 238.19 149.629 236.725 148.063 C 235.29 146.528 234.157 144.737 233.385 142.783 C 232.6 140.831 232.196 138.747 232.195 136.643 C 232.192 134.525 232.61 132.428 233.425 130.473 C 234.23 128.517 235.405 126.734 236.885 125.223 C 238.394 123.698 240.179 122.473 242.145 121.613 C 244.245 120.698 246.514 120.238 248.805 120.263 C 251.126 120.229 253.425 120.715 255.535 121.683 C 257.486 122.583 259.243 123.857 260.705 125.433 C 262.131 126.982 263.256 128.782 264.025 130.743 C 264.793 132.681 265.187 134.748 265.185 136.833 C 265.188 138.944 264.77 141.035 263.955 142.983 C 263.147 144.921 261.983 146.692 260.525 148.203 C 259.023 149.736 257.245 150.971 255.285 151.843 C 253.188 152.768 250.917 153.235 248.625 153.213 Z M 241.255 136.733 C 241.251 137.813 241.406 138.888 241.715 139.923 C 241.997 140.907 242.462 141.83 243.085 142.643 C 244.421 144.386 246.52 145.374 248.715 145.293 C 249.873 145.32 251.02 145.063 252.055 144.543 C 252.968 144.062 253.758 143.377 254.365 142.543 C 254.975 141.709 255.426 140.77 255.695 139.773 C 255.982 138.744 256.126 137.681 256.125 136.613 C 256.127 135.537 255.976 134.466 255.675 133.433 C 255.388 132.45 254.912 131.533 254.275 130.733 C 253.642 129.949 252.847 129.311 251.945 128.863 C 250.924 128.368 249.799 128.124 248.665 128.153 C 246.465 128.073 244.365 129.069 243.035 130.823 C 242.417 131.646 241.963 132.579 241.695 133.573 C 241.396 134.599 241.248 135.664 241.255 136.733 Z" style="fill: rgb(15, 30, 66);"/>
  <path class="cls-1" d="M 268.985 152.893 L 268.985 120.443 L 281.485 120.443 C 283.909 120.397 286.319 120.832 288.575 121.723 C 292.445 123.266 295.452 126.416 296.815 130.353 C 297.506 132.377 297.844 134.504 297.815 136.643 C 297.847 138.933 297.45 141.209 296.645 143.353 C 295.915 145.276 294.783 147.022 293.325 148.473 C 291.851 149.922 290.09 151.046 288.155 151.773 C 286.006 152.574 283.727 152.967 281.435 152.933 Z M 288.775 136.643 C 288.787 135.48 288.615 134.322 288.265 133.213 C 287.971 132.24 287.481 131.338 286.825 130.563 C 286.198 129.819 285.407 129.23 284.515 128.843 C 283.55 128.421 282.507 128.209 281.455 128.223 L 277.885 128.223 L 277.885 145.163 L 281.455 145.163 C 282.527 145.179 283.589 144.957 284.565 144.513 C 285.459 144.101 286.249 143.493 286.875 142.733 C 287.519 141.933 288.001 141.016 288.295 140.033 C 288.623 138.933 288.785 137.79 288.775 136.643 Z" style="fill: rgb(15, 30, 66);"/>
  <path class="cls-1" d="M 324.905 145.163 L 324.905 152.893 L 301.775 152.893 L 301.775 120.443 L 324.515 120.443 L 324.515 128.223 L 310.675 128.223 L 310.675 132.803 L 322.485 132.803 L 322.485 140.033 L 310.675 140.033 L 310.675 145.163 Z" style="fill: rgb(15, 30, 66);"/>
  <path class="cls-1" d="M 335.345 120.443 L 341.705 141.723 L 347.975 120.443 L 357.355 120.443 L 345.415 152.893 L 337.995 152.893 L 325.915 120.403 Z" style="fill: rgb(15, 30, 66);"/>
</svg>