<svg id="OBJECTS" xmlns="http://www.w3.org/2000/svg" xmlns:xlink="http://www.w3.org/1999/xlink" viewBox="0 0 179.61 178.1"><defs><style>.cls-1{fill:url(#Degradado_sin_nombre_391);}.cls-2{fill:url(#Degradado_sin_nombre_391-2);}.cls-3{fill:url(#Degradado_sin_nombre_391-3);}.cls-4{fill:url(#Degradado_sin_nombre_391-4);}</style><linearGradient id="Degradado_sin_nombre_391" x1="18.31" y1="109.43" x2="155.64" y2="109.43" gradientUnits="userSpaceOnUse"><stop offset="0" stop-color="#15b4e9"/><stop offset="1" stop-color="#1d305e"/></linearGradient><linearGradient id="Degradado_sin_nombre_391-2" x1="160.2" y1="198.02" x2="182.95" y2="198.02" gradientTransform="translate(190.27 -63.32) rotate(45)" xlink:href="#Degradado_sin_nombre_391"/><linearGradient id="Degradado_sin_nombre_391-3" x1="23.09" y1="68.66" x2="160.42" y2="68.66" xlink:href="#Degradado_sin_nombre_391"/><linearGradient id="Degradado_sin_nombre_391-4" x1="314.7" y1="213.67" x2="339.81" y2="213.67" gradientTransform="translate(246.95 -168.82) rotate(45)" xlink:href="#Degradado_sin_nombre_391"/></defs><polygon class="cls-1" points="97.47 178.1 18.31 98.95 29.25 88.01 97.47 156.22 133.77 119.92 65.55 51.71 76.49 40.77 155.64 119.92 97.47 178.1"/><rect class="cls-2" x="163.84" y="189.67" width="15.47" height="16.71" transform="translate(-249.97 62.37) rotate(-45)"/><polygon class="cls-3" points="102.24 137.33 23.09 58.18 81.27 0 160.42 79.15 149.48 90.09 81.27 21.88 44.97 58.18 113.18 126.39 102.24 137.33"/><rect class="cls-4" x="319.52" y="203.66" width="15.47" height="20.03" transform="translate(-215.43 177.05) rotate(-45)"/></svg>