<svg id="OBJECTS" xmlns="http://www.w3.org/2000/svg" xmlns:xlink="http://www.w3.org/1999/xlink" viewBox="0 0 252.75 231.51"><defs><style>.cls-1{fill:#0c78bd;}.cls-2{fill:url(#Degradado_sin_nombre_391);}.cls-3{fill:url(#Degradado_sin_nombre_391-2);}.cls-4{fill:url(#Degradado_sin_nombre_391-3);}.cls-5{fill:url(#Degradado_sin_nombre_391-4);}</style><linearGradient id="Degradado_sin_nombre_391" x1="54.68" y1="109.43" x2="192.01" y2="109.43" gradientUnits="userSpaceOnUse"><stop offset="0" stop-color="#15b4e9"/><stop offset="1" stop-color="#1d305e"/></linearGradient><linearGradient id="Degradado_sin_nombre_391-2" x1="160.2" y1="198.02" x2="182.95" y2="198.02" gradientTransform="translate(190.27 -63.32) rotate(45)" xlink:href="#Degradado_sin_nombre_391"/><linearGradient id="Degradado_sin_nombre_391-3" x1="59.46" y1="68.66" x2="196.79" y2="68.66" xlink:href="#Degradado_sin_nombre_391"/><linearGradient id="Degradado_sin_nombre_391-4" x1="314.7" y1="213.67" x2="339.81" y2="213.67" gradientTransform="translate(246.95 -168.82) rotate(45)" xlink:href="#Degradado_sin_nombre_391"/></defs><path class="cls-1" d="M145.71,326.17a23.79,23.79,0,0,0-2.84-1.46,25,25,0,0,0-2.77-1,10,10,0,0,0-3-.48,4.26,4.26,0,0,0-1.9.36,1.3,1.3,0,0,0-.71,1.24,1.41,1.41,0,0,0,.42,1.05,3.75,3.75,0,0,0,1.19.75,13.64,13.64,0,0,0,1.9.67c.74.21,1.59.47,2.54.78a32.5,32.5,0,0,1,4.05,1.51,12.46,12.46,0,0,1,3.08,1.94,7.41,7.41,0,0,1,2,2.72,9.84,9.84,0,0,1,.69,3.89,10.17,10.17,0,0,1-1.08,4.92,8.73,8.73,0,0,1-2.83,3.18,11.93,11.93,0,0,1-4,1.72,19.28,19.28,0,0,1-4.46.53,24.32,24.32,0,0,1-3.66-.28,30.54,30.54,0,0,1-3.73-.78,31.79,31.79,0,0,1-3.57-1.19,22.34,22.34,0,0,1-3.18-1.55l3.85-7.83a26.71,26.71,0,0,0,3.34,1.79,22.54,22.54,0,0,0,3.31,1.23,13.15,13.15,0,0,0,3.78.55,3.86,3.86,0,0,0,2-.39,1.19,1.19,0,0,0,.57-1,1.47,1.47,0,0,0-.57-1.16,5.28,5.28,0,0,0-1.58-.85c-.67-.24-1.44-.49-2.31-.73s-1.8-.54-2.77-.87a24.45,24.45,0,0,1-3.71-1.58,10,10,0,0,1-2.56-1.92,7,7,0,0,1-1.49-2.45,9.58,9.58,0,0,1-.48-3.16,11,11,0,0,1,1-4.76,9.88,9.88,0,0,1,2.68-3.43,11.85,11.85,0,0,1,3.87-2.08,14.52,14.52,0,0,1,4.6-.71,17.4,17.4,0,0,1,3.48.34,28.51,28.51,0,0,1,3.27.87c1.05.35,2,.73,3,1.14s1.74.81,2.47,1.17Z" transform="translate(-123.83 -116.95)"/><path class="cls-1" d="M183,315.55V348h-8.92V335.32H163.19V348h-8.93V315.55h8.93v12h10.89v-12Z" transform="translate(-123.83 -116.95)"/><path class="cls-1" d="M203.23,348.32a15.6,15.6,0,0,1-6.73-1.42,16.67,16.67,0,0,1-5.17-3.73,16.91,16.91,0,0,1-3.34-5.28,16.48,16.48,0,0,1-1.19-6.14,15.81,15.81,0,0,1,1.24-6.17,16.29,16.29,0,0,1,3.45-5.25,17.1,17.1,0,0,1,5.26-3.61,16.25,16.25,0,0,1,6.66-1.35,15.57,15.57,0,0,1,6.73,1.42,16.45,16.45,0,0,1,5.17,3.75,16.86,16.86,0,0,1,3.32,5.31,16.48,16.48,0,0,1,1.17,6.09,15.86,15.86,0,0,1-1.24,6.15,16.66,16.66,0,0,1-3.43,5.22,17,17,0,0,1-5.24,3.64A16.1,16.1,0,0,1,203.23,348.32Zm-7.37-16.48a11.34,11.34,0,0,0,.46,3.19,8.2,8.2,0,0,0,1.37,2.72,7.47,7.47,0,0,0,9,1.9,6.74,6.74,0,0,0,2.31-2,8.37,8.37,0,0,0,1.33-2.77,11.7,11.7,0,0,0,.44-3.16,11.27,11.27,0,0,0-.46-3.18,7.89,7.89,0,0,0-1.4-2.7,6.91,6.91,0,0,0-2.33-1.87,7.9,7.9,0,0,0-6.59,0,6.93,6.93,0,0,0-2.31,1.94,8.31,8.31,0,0,0-1.35,2.75A11.43,11.43,0,0,0,195.86,331.84Z" transform="translate(-123.83 -116.95)"/><path class="cls-1" d="M223.6,348V315.55h8.92v12.36l9.88-12.36h10.07l-11.81,14.56L253.3,348H243l-8-11.94-2.47,2.56V348Z" transform="translate(-123.83 -116.95)"/><path class="cls-1" d="M267.85,348.32a15.57,15.57,0,0,1-6.73-1.42,16.55,16.55,0,0,1-5.17-3.73,16.73,16.73,0,0,1-3.34-5.28,16.48,16.48,0,0,1-1.19-6.14,16,16,0,0,1,1.23-6.17,16.48,16.48,0,0,1,3.46-5.25,17,17,0,0,1,5.26-3.61,16.25,16.25,0,0,1,6.66-1.35,15.6,15.6,0,0,1,6.73,1.42,16.45,16.45,0,0,1,5.17,3.75,17,17,0,0,1,3.32,5.31,16.47,16.47,0,0,1,1.16,6.09,15.85,15.85,0,0,1-1.23,6.15,16.84,16.84,0,0,1-3.43,5.22,17,17,0,0,1-5.24,3.64A16.1,16.1,0,0,1,267.85,348.32Zm-7.37-16.48a11,11,0,0,0,.46,3.19,8.2,8.2,0,0,0,1.37,2.72,6.78,6.78,0,0,0,5.63,2.65,7.06,7.06,0,0,0,3.34-.75,6.74,6.74,0,0,0,2.31-2,8.37,8.37,0,0,0,1.33-2.77,11.69,11.69,0,0,0,.43-3.16,11.26,11.26,0,0,0-.45-3.18,7.89,7.89,0,0,0-1.4-2.7,7,7,0,0,0-2.33-1.87,7.11,7.11,0,0,0-3.28-.71,6.76,6.76,0,0,0-5.63,2.67,8.1,8.1,0,0,0-1.34,2.75A11.06,11.06,0,0,0,260.48,331.84Z" transform="translate(-123.83 -116.95)"/><path class="cls-1" d="M288.21,348V315.55h12.5a18.38,18.38,0,0,1,7.09,1.28,14.34,14.34,0,0,1,8.24,8.63,18.66,18.66,0,0,1,1,6.29,18.35,18.35,0,0,1-1.17,6.71,14.44,14.44,0,0,1-3.32,5.12,14.79,14.79,0,0,1-5.17,3.3,18.44,18.44,0,0,1-6.72,1.16ZM308,331.75a11,11,0,0,0-.51-3.43,7.44,7.44,0,0,0-1.44-2.65,6.31,6.31,0,0,0-2.31-1.72,7.4,7.4,0,0,0-3.06-.62h-3.57v16.94h3.57a7.24,7.24,0,0,0,3.11-.65,6.52,6.52,0,0,0,2.31-1.78,7.91,7.91,0,0,0,1.42-2.7A11.48,11.48,0,0,0,308,331.75Z" transform="translate(-123.83 -116.95)"/><path class="cls-1" d="M344.13,340.27V348H321V315.55h22.74v7.78H329.9v4.58h11.81v7.23H329.9v5.13Z" transform="translate(-123.83 -116.95)"/><path class="cls-1" d="M354.57,315.55l6.36,21.28,6.27-21.28h9.38L364.64,348h-7.42l-12.08-32.49Z" transform="translate(-123.83 -116.95)"/><polygon class="cls-2" points="133.83 178.1 54.68 98.95 65.62 88.01 133.83 156.22 170.13 119.92 101.92 51.71 112.86 40.77 192.01 119.92 133.83 178.1"/><rect class="cls-3" x="163.84" y="189.67" width="15.47" height="16.71" transform="translate(-213.6 62.37) rotate(-45)"/><polygon class="cls-4" points="138.61 137.33 59.46 58.18 117.64 0 196.79 79.15 185.85 90.09 117.64 21.88 81.34 58.18 149.55 126.39 138.61 137.33"/><rect class="cls-5" x="319.52" y="203.66" width="15.47" height="20.03" transform="translate(-179.07 177.05) rotate(-45)"/></svg>